# xmcd CD database file
#
# Track frame offsets:
#	150
#	14052
#	28602
#	42952
#	58227
#	73377
#	87655
#	103002
#	117477
#	131227
#	145115
#	159430
#	172860
#	185930
#
# Disc length: 2645 seconds
#
# Revision: 3
# Processed by: cddbd v1.5.2PL0 Copyright (c) Steve Scherf et al.
# Submitted via: CDex 1.51
#
DISCID=d70a530e
DTITLE=Blind Willie Johnson - The Complete Blind Willie Johnson - Disc 1
DYEAR=1900
DGENRE=
TTITLE0=I Know His Blood Can Make Me Whole
TTITLE1=Jesus Make Up My Dying Bed
TTITLE2=It's Nobody's Fault But Mine
TTITLE3=Mother's Children Have A Hard Time
TTITLE4=Dark Was The Night -- Cold Was The Ground
TTITLE5=If I Had My Way I'd Tear The Building Down
TTITLE6=I'm Gonna Run To The City Of Refuge
TTITLE7=Jesus Is Coming Soon
TTITLE8=Lord I Can't Just Keep From Crying
TTITLE9=Keep Your Lamp Trimmed And Burning
TTITLE10=Let Your Light Shine On Me
TTITLE11=God Don't Never Change
TTITLE12=Bye And Bye I'm Goin' To See The King
TTITLE13=Sweeter As The Years Roll By
EXTD=
EXTT0=
EXTT1=
EXTT2=
EXTT3=
EXTT4=
EXTT5=
EXTT6=
EXTT7=
EXTT8=
EXTT9=
EXTT10=
EXTT11=
EXTT12=
EXTT13=
PLAYORDER=
